<?xml version="1.0" encoding="utf-8"?>
<!-- Generator: Adobe Illustrator 23.0.6, SVG Export Plug-In . SVG Version: 6.00 Build 0)  -->
<svg version="1.1" id="Layer_1" xmlns="http://www.w3.org/2000/svg" xmlns:xlink="http://www.w3.org/1999/xlink" x="0px" y="0px"
	 viewBox="0 0 42 45.2" style="enable-background:new 0 0 42 45.2;" xml:space="preserve">
<style type="text/css">
	.st0{fill:#FF1900;}
</style>
<title>Asset 1</title>
<g>
	<g id="Layer_1-2">
		<path class="st0" d="M39.2,34.2c-3.8,5.4-9.9,8.6-16.5,8.6l0,0C11.6,42.9,2.5,34,2.4,22.9v-0.1c0-0.1,0-0.2,0-0.2l0,0v-0.2
			c0-11.1,9-20,20.1-20l0,0l0,0c6.6,0,12.7,3.2,16.5,8.6h3C37.9,4.2,30.6,0,22.7,0h-0.2C10.1,0,0,10.1,0,22.5l0,0v0.2l0,0
			c0,12.4,10.1,22.5,22.5,22.5h0.2c7.9,0,15.2-4.2,19.3-11H39.2z"/>
	</g>
</g>
</svg>
